<svg width="253" height="32" viewBox="0 0 253 32" fill="none" xmlns="http://www.w3.org/2000/svg">
<path d="M103.33 22C103.117 22 102.93 21.9267 102.77 21.78C102.623 21.62 102.55 21.4333 102.55 21.22V7.16C102.55 6.93333 102.623 6.74667 102.77 6.6C102.93 6.45333 103.117 6.38 103.33 6.38C103.65 6.38 103.883 6.51333 104.03 6.78L110.77 20.18H110.09L116.71 6.78C116.87 6.51333 117.103 6.38 117.41 6.38C117.623 6.38 117.803 6.45333 117.95 6.6C118.097 6.74667 118.17 6.93333 118.17 7.16V21.22C118.17 21.4333 118.097 21.62 117.95 21.78C117.803 21.9267 117.623 22 117.41 22C117.183 22 116.99 21.9267 116.83 21.78C116.683 21.62 116.61 21.4333 116.61 21.22V9.18L116.95 9.2L111.05 21.26C110.903 21.5133 110.677 21.64 110.37 21.64C110.037 21.64 109.797 21.48 109.65 21.16L103.71 9.28L104.11 9.18V21.22C104.11 21.4333 104.03 21.62 103.87 21.78C103.723 21.9267 103.543 22 103.33 22ZM126.439 22.12C125.492 22.12 124.646 21.9267 123.899 21.54C123.152 21.14 122.559 20.56 122.119 19.8C121.692 19.04 121.479 18.1133 121.479 17.02V11.82C121.479 11.6067 121.552 11.4267 121.699 11.28C121.846 11.1333 122.026 11.06 122.239 11.06C122.466 11.06 122.652 11.1333 122.799 11.28C122.946 11.4267 123.019 11.6067 123.019 11.82V17.02C123.019 17.8467 123.172 18.5267 123.479 19.06C123.799 19.5933 124.226 19.9933 124.759 20.26C125.306 20.5267 125.919 20.66 126.599 20.66C127.252 20.66 127.839 20.5333 128.359 20.28C128.892 20.0267 129.312 19.68 129.619 19.24C129.926 18.8 130.079 18.3 130.079 17.74H131.179C131.139 18.58 130.906 19.3333 130.479 20C130.066 20.6533 129.506 21.1733 128.799 21.56C128.092 21.9333 127.306 22.12 126.439 22.12ZM130.839 22C130.612 22 130.426 21.9333 130.279 21.8C130.146 21.6533 130.079 21.46 130.079 21.22V11.82C130.079 11.5933 130.146 11.4133 130.279 11.28C130.426 11.1333 130.612 11.06 130.839 11.06C131.066 11.06 131.252 11.1333 131.399 11.28C131.546 11.4133 131.619 11.5933 131.619 11.82V21.22C131.619 21.46 131.546 21.6533 131.399 21.8C131.252 21.9333 131.066 22 130.839 22ZM138.734 22.1C137.947 22.1 137.167 21.9667 136.394 21.7C135.621 21.4333 134.994 21.0333 134.514 20.5C134.367 20.34 134.307 20.16 134.334 19.96C134.361 19.76 134.461 19.5867 134.634 19.44C134.821 19.3067 135.014 19.2533 135.214 19.28C135.414 19.3067 135.581 19.3933 135.714 19.54C136.034 19.9133 136.454 20.2 136.974 20.4C137.507 20.6 138.094 20.7 138.734 20.7C139.721 20.7 140.434 20.5333 140.874 20.2C141.314 19.8533 141.541 19.44 141.554 18.96C141.554 18.48 141.327 18.0867 140.874 17.78C140.421 17.46 139.674 17.2133 138.634 17.04C137.287 16.8267 136.301 16.4533 135.674 15.92C135.047 15.3867 134.734 14.7533 134.734 14.02C134.734 13.34 134.914 12.7733 135.274 12.32C135.634 11.8667 136.114 11.5267 136.714 11.3C137.314 11.0733 137.974 10.96 138.694 10.96C139.587 10.96 140.354 11.1133 140.994 11.42C141.647 11.7267 142.174 12.14 142.574 12.66C142.707 12.8333 142.761 13.0133 142.734 13.2C142.707 13.3867 142.601 13.54 142.414 13.66C142.254 13.7533 142.067 13.7867 141.854 13.76C141.654 13.72 141.481 13.62 141.334 13.46C141.001 13.0733 140.614 12.7933 140.174 12.62C139.734 12.4333 139.227 12.34 138.654 12.34C137.921 12.34 137.334 12.4933 136.894 12.8C136.454 13.0933 136.234 13.4667 136.234 13.92C136.234 14.2267 136.314 14.4933 136.474 14.72C136.647 14.9467 136.934 15.1467 137.334 15.32C137.747 15.4933 138.321 15.64 139.054 15.76C140.054 15.92 140.841 16.16 141.414 16.48C142.001 16.7867 142.414 17.1533 142.654 17.58C142.907 17.9933 143.034 18.4467 143.034 18.94C143.034 19.5667 142.847 20.12 142.474 20.6C142.114 21.0667 141.607 21.4333 140.954 21.7C140.314 21.9667 139.574 22.1 138.734 22.1ZM146.495 22C146.255 22 146.062 21.9333 145.915 21.8C145.782 21.6533 145.715 21.46 145.715 21.22V11.84C145.715 11.6 145.782 11.4133 145.915 11.28C146.062 11.1333 146.255 11.06 146.495 11.06C146.722 11.06 146.902 11.1333 147.035 11.28C147.182 11.4133 147.255 11.6 147.255 11.84V21.22C147.255 21.46 147.182 21.6533 147.035 21.8C146.902 21.9333 146.722 22 146.495 22ZM146.475 8.98C146.182 8.98 145.929 8.87333 145.715 8.66C145.502 8.44667 145.395 8.18667 145.395 7.88C145.395 7.54667 145.502 7.28667 145.715 7.1C145.942 6.9 146.202 6.8 146.495 6.8C146.775 6.8 147.022 6.9 147.235 7.1C147.462 7.28667 147.575 7.54667 147.575 7.88C147.575 8.18667 147.469 8.44667 147.255 8.66C147.042 8.87333 146.782 8.98 146.475 8.98ZM155.757 22.1C154.703 22.1 153.763 21.86 152.937 21.38C152.123 20.8867 151.477 20.22 150.997 19.38C150.53 18.54 150.297 17.5933 150.297 16.54C150.297 15.4733 150.523 14.52 150.977 13.68C151.43 12.84 152.05 12.18 152.837 11.7C153.623 11.2067 154.53 10.96 155.557 10.96C156.37 10.96 157.117 11.12 157.797 11.44C158.49 11.76 159.097 12.24 159.617 12.88C159.763 13.04 159.817 13.2133 159.777 13.4C159.737 13.5733 159.623 13.7267 159.437 13.86C159.29 13.9667 159.123 14.0067 158.937 13.98C158.763 13.94 158.61 13.84 158.477 13.68C157.703 12.8 156.73 12.36 155.557 12.36C154.81 12.36 154.15 12.54 153.577 12.9C153.017 13.26 152.577 13.7533 152.257 14.38C151.95 15.0067 151.797 15.7267 151.797 16.54C151.797 17.34 151.963 18.0533 152.297 18.68C152.63 19.3067 153.097 19.8 153.697 20.16C154.297 20.52 154.983 20.7 155.757 20.7C156.277 20.7 156.75 20.6333 157.177 20.5C157.617 20.3533 158.003 20.1333 158.337 19.84C158.497 19.7067 158.663 19.6333 158.837 19.62C159.01 19.6067 159.17 19.66 159.317 19.78C159.477 19.9267 159.563 20.0933 159.577 20.28C159.603 20.4667 159.543 20.6267 159.397 20.76C158.423 21.6533 157.21 22.1 155.757 22.1ZM163.451 22C163.224 22 163.038 21.9267 162.891 21.78C162.744 21.6333 162.671 21.4467 162.671 21.22V7.16C162.671 6.93333 162.744 6.74667 162.891 6.6C163.038 6.45333 163.224 6.38 163.451 6.38H172.831C173.044 6.38 173.224 6.45333 173.371 6.6C173.531 6.73333 173.611 6.91333 173.611 7.14C173.611 7.34 173.531 7.51333 173.371 7.66C173.224 7.80667 173.044 7.88 172.831 7.88H164.231V13.4H170.491C170.718 13.4 170.904 13.4733 171.051 13.62C171.198 13.7667 171.271 13.9467 171.271 14.16C171.271 14.3733 171.198 14.5533 171.051 14.7C170.904 14.8467 170.718 14.92 170.491 14.92H164.231V20.5H172.831C173.044 20.5 173.224 20.5733 173.371 20.72C173.531 20.8667 173.611 21.04 173.611 21.24C173.611 21.4667 173.531 21.6533 173.371 21.8C173.224 21.9333 173.044 22 172.831 22H163.451ZM180.999 22.1C179.945 22.1 178.999 21.86 178.159 21.38C177.319 20.8867 176.652 20.22 176.159 19.38C175.679 18.54 175.439 17.5867 175.439 16.52C175.439 15.4667 175.672 14.52 176.139 13.68C176.619 12.84 177.265 12.18 178.079 11.7C178.892 11.2067 179.812 10.96 180.839 10.96C181.732 10.96 182.539 11.1533 183.259 11.54C183.979 11.9133 184.559 12.4133 184.999 13.04V7.16C184.999 6.92 185.072 6.73333 185.219 6.6C185.365 6.45333 185.552 6.38 185.779 6.38C186.005 6.38 186.192 6.45333 186.339 6.6C186.485 6.73333 186.559 6.92 186.559 7.16V16.6C186.532 17.64 186.272 18.58 185.779 19.42C185.299 20.2467 184.639 20.9 183.799 21.38C182.972 21.86 182.039 22.1 180.999 22.1ZM180.999 20.7C181.772 20.7 182.459 20.52 183.059 20.16C183.672 19.7867 184.152 19.2867 184.499 18.66C184.859 18.0333 185.039 17.32 185.039 16.52C185.039 15.7333 184.859 15.0267 184.499 14.4C184.152 13.76 183.672 13.26 183.059 12.9C182.459 12.54 181.772 12.36 180.999 12.36C180.239 12.36 179.552 12.54 178.939 12.9C178.325 13.26 177.839 13.76 177.479 14.4C177.119 15.0267 176.939 15.7333 176.939 16.52C176.939 17.32 177.119 18.0333 177.479 18.66C177.839 19.2867 178.325 19.7867 178.939 20.16C179.552 20.52 180.239 20.7 180.999 20.7ZM190.959 22C190.719 22 190.526 21.9333 190.379 21.8C190.246 21.6533 190.179 21.46 190.179 21.22V11.84C190.179 11.6 190.246 11.4133 190.379 11.28C190.526 11.1333 190.719 11.06 190.959 11.06C191.186 11.06 191.366 11.1333 191.499 11.28C191.646 11.4133 191.719 11.6 191.719 11.84V21.22C191.719 21.46 191.646 21.6533 191.499 21.8C191.366 21.9333 191.186 22 190.959 22ZM190.939 8.98C190.646 8.98 190.393 8.87333 190.179 8.66C189.966 8.44667 189.859 8.18667 189.859 7.88C189.859 7.54667 189.966 7.28667 190.179 7.1C190.406 6.9 190.666 6.8 190.959 6.8C191.239 6.8 191.486 6.9 191.699 7.1C191.926 7.28667 192.039 7.54667 192.039 7.88C192.039 8.18667 191.933 8.44667 191.719 8.66C191.506 8.87333 191.246 8.98 190.939 8.98ZM199.621 22C198.914 22 198.281 21.8333 197.721 21.5C197.174 21.1667 196.741 20.7133 196.421 20.14C196.101 19.5533 195.941 18.8867 195.941 18.14V8.36C195.941 8.13333 196.007 7.94667 196.141 7.8C196.287 7.65333 196.474 7.58 196.701 7.58C196.927 7.58 197.114 7.65333 197.261 7.8C197.407 7.94667 197.481 8.13333 197.481 8.36V18.14C197.481 18.82 197.681 19.38 198.081 19.82C198.481 20.2467 198.994 20.46 199.621 20.46H200.161C200.374 20.46 200.547 20.5333 200.681 20.68C200.814 20.8267 200.881 21.0133 200.881 21.24C200.881 21.4667 200.801 21.6533 200.641 21.8C200.481 21.9333 200.281 22 200.041 22H199.621ZM194.641 12.8C194.441 12.8 194.274 12.74 194.141 12.62C194.007 12.4867 193.941 12.3267 193.941 12.14C193.941 11.94 194.007 11.78 194.141 11.66C194.274 11.5267 194.441 11.46 194.641 11.46H199.741C199.941 11.46 200.107 11.5267 200.241 11.66C200.374 11.78 200.441 11.94 200.441 12.14C200.441 12.3267 200.374 12.4867 200.241 12.62C200.107 12.74 199.941 12.8 199.741 12.8H194.641ZM208.067 22.1C207.001 22.1 206.047 21.86 205.207 21.38C204.367 20.9 203.707 20.24 203.227 19.4C202.747 18.56 202.507 17.6067 202.507 16.54C202.507 15.46 202.747 14.5 203.227 13.66C203.707 12.82 204.367 12.16 205.207 11.68C206.047 11.2 207.001 10.96 208.067 10.96C209.134 10.96 210.081 11.2 210.907 11.68C211.747 12.16 212.407 12.82 212.887 13.66C213.367 14.5 213.614 15.46 213.627 16.54C213.627 17.6067 213.381 18.56 212.887 19.4C212.407 20.24 211.747 20.9 210.907 21.38C210.081 21.86 209.134 22.1 208.067 22.1ZM208.067 20.7C208.841 20.7 209.534 20.52 210.147 20.16C210.761 19.8 211.241 19.3067 211.587 18.68C211.934 18.0533 212.107 17.34 212.107 16.54C212.107 15.74 211.934 15.0267 211.587 14.4C211.241 13.76 210.761 13.26 210.147 12.9C209.534 12.54 208.841 12.36 208.067 12.36C207.294 12.36 206.601 12.54 205.987 12.9C205.374 13.26 204.887 13.76 204.527 14.4C204.181 15.0267 204.007 15.74 204.007 16.54C204.007 17.34 204.181 18.0533 204.527 18.68C204.887 19.3067 205.374 19.8 205.987 20.16C206.601 20.52 207.294 20.7 208.067 20.7ZM216.963 15.26C217.003 14.4333 217.216 13.6933 217.603 13.04C218.003 12.3867 218.516 11.8733 219.143 11.5C219.783 11.1267 220.489 10.94 221.263 10.94C221.876 10.94 222.349 11.0267 222.683 11.2C223.016 11.3733 223.143 11.6267 223.063 11.96C223.009 12.16 222.916 12.2933 222.783 12.36C222.663 12.4267 222.509 12.4533 222.323 12.44C222.149 12.4267 221.949 12.4133 221.723 12.4C220.976 12.3333 220.309 12.4133 219.723 12.64C219.149 12.8533 218.689 13.1867 218.343 13.64C218.009 14.0933 217.843 14.6333 217.843 15.26H216.963ZM217.083 22C216.843 22 216.656 21.9333 216.523 21.8C216.389 21.6667 216.323 21.48 216.323 21.24V11.82C216.323 11.58 216.389 11.3933 216.523 11.26C216.656 11.1267 216.843 11.06 217.083 11.06C217.323 11.06 217.509 11.1267 217.643 11.26C217.776 11.3933 217.843 11.58 217.843 11.82V21.24C217.843 21.48 217.776 21.6667 217.643 21.8C217.509 21.9333 217.323 22 217.083 22Z" fill="white"/>
<path fill-rule="evenodd" clip-rule="evenodd" d="M32.8418 2.96296H9.53674e-06L13.8281 9.63512H46.6699L32.8418 2.96296ZM13.8281 9.63512V25.4815L0 18.8093V2.96297L13.8281 9.63512Z" fill="#CCCCCC"/>
<path fill-rule="evenodd" clip-rule="evenodd" d="M13.8281 25.4815L46.6699 25.4815L32.8418 18.8093L-3.8147e-06 18.8093L13.8281 25.4815ZM32.8418 18.8093L32.8418 2.96296L46.6699 9.63511L46.6699 25.4815L32.8418 18.8093Z" fill="#F41313"/>
</svg>
