<svg width="122" height="17" viewBox="0 0 122 17" fill="none" xmlns="http://www.w3.org/2000/svg">
<path d="M1.32999 16C1.11665 16 0.929988 15.9267 0.769988 15.78C0.623321 15.62 0.549988 15.4333 0.549988 15.22V1.16C0.549988 0.933332 0.623321 0.746666 0.769988 0.599999C0.929988 0.453333 1.11665 0.38 1.32999 0.38C1.64999 0.38 1.88332 0.513333 2.02999 0.779999L8.76999 14.18H8.08999L14.71 0.779999C14.87 0.513333 15.1033 0.38 15.41 0.38C15.6233 0.38 15.8033 0.453333 15.95 0.599999C16.0967 0.746666 16.17 0.933332 16.17 1.16V15.22C16.17 15.4333 16.0967 15.62 15.95 15.78C15.8033 15.9267 15.6233 16 15.41 16C15.1833 16 14.99 15.9267 14.83 15.78C14.6833 15.62 14.61 15.4333 14.61 15.22V3.18L14.95 3.2L9.04999 15.26C8.90332 15.5133 8.67665 15.64 8.36999 15.64C8.03665 15.64 7.79665 15.48 7.64999 15.16L1.70999 3.28L2.10999 3.18V15.22C2.10999 15.4333 2.02999 15.62 1.86999 15.78C1.72332 15.9267 1.54332 16 1.32999 16ZM24.4389 16.12C23.4922 16.12 22.6456 15.9267 21.8989 15.54C21.1522 15.14 20.5589 14.56 20.1189 13.8C19.6922 13.04 19.4789 12.1133 19.4789 11.02V5.82C19.4789 5.60667 19.5522 5.42667 19.6989 5.28C19.8456 5.13333 20.0256 5.06 20.2389 5.06C20.4656 5.06 20.6522 5.13333 20.7989 5.28C20.9456 5.42667 21.0189 5.60667 21.0189 5.82V11.02C21.0189 11.8467 21.1722 12.5267 21.4789 13.06C21.7989 13.5933 22.2256 13.9933 22.7589 14.26C23.3056 14.5267 23.9189 14.66 24.5989 14.66C25.2522 14.66 25.8389 14.5333 26.3589 14.28C26.8922 14.0267 27.3122 13.68 27.6189 13.24C27.9256 12.8 28.0789 12.3 28.0789 11.74H29.1789C29.1389 12.58 28.9056 13.3333 28.4789 14C28.0656 14.6533 27.5056 15.1733 26.7989 15.56C26.0922 15.9333 25.3056 16.12 24.4389 16.12ZM28.8389 16C28.6122 16 28.4256 15.9333 28.2789 15.8C28.1456 15.6533 28.0789 15.46 28.0789 15.22V5.82C28.0789 5.59333 28.1456 5.41333 28.2789 5.28C28.4256 5.13333 28.6122 5.06 28.8389 5.06C29.0656 5.06 29.2522 5.13333 29.3989 5.28C29.5456 5.41333 29.6189 5.59333 29.6189 5.82V15.22C29.6189 15.46 29.5456 15.6533 29.3989 15.8C29.2522 15.9333 29.0656 16 28.8389 16ZM36.7341 16.1C35.9474 16.1 35.1674 15.9667 34.3941 15.7C33.6207 15.4333 32.9941 15.0333 32.5141 14.5C32.3674 14.34 32.3074 14.16 32.3341 13.96C32.3607 13.76 32.4607 13.5867 32.6341 13.44C32.8207 13.3067 33.0141 13.2533 33.2141 13.28C33.4141 13.3067 33.5807 13.3933 33.7141 13.54C34.0341 13.9133 34.4541 14.2 34.9741 14.4C35.5074 14.6 36.0941 14.7 36.7341 14.7C37.7207 14.7 38.4341 14.5333 38.8741 14.2C39.3141 13.8533 39.5407 13.44 39.5541 12.96C39.5541 12.48 39.3274 12.0867 38.8741 11.78C38.4207 11.46 37.6741 11.2133 36.6341 11.04C35.2874 10.8267 34.3007 10.4533 33.6741 9.92C33.0474 9.38667 32.7341 8.75333 32.7341 8.02C32.7341 7.34 32.9141 6.77333 33.2741 6.32C33.6341 5.86667 34.1141 5.52667 34.7141 5.3C35.3141 5.07333 35.9741 4.96 36.6941 4.96C37.5874 4.96 38.3541 5.11333 38.9941 5.42C39.6474 5.72667 40.1741 6.14 40.5741 6.66C40.7074 6.83333 40.7607 7.01333 40.7341 7.2C40.7074 7.38667 40.6007 7.54 40.4141 7.66C40.2541 7.75333 40.0674 7.78667 39.8541 7.76C39.6541 7.72 39.4807 7.62 39.3341 7.46C39.0007 7.07333 38.6141 6.79333 38.1741 6.62C37.7341 6.43333 37.2274 6.34 36.6541 6.34C35.9207 6.34 35.3341 6.49333 34.8941 6.8C34.4541 7.09333 34.2341 7.46667 34.2341 7.92C34.2341 8.22667 34.3141 8.49333 34.4741 8.72C34.6474 8.94667 34.9341 9.14667 35.3341 9.32C35.7474 9.49333 36.3207 9.64 37.0541 9.76C38.0541 9.92 38.8407 10.16 39.4141 10.48C40.0007 10.7867 40.4141 11.1533 40.6541 11.58C40.9074 11.9933 41.0341 12.4467 41.0341 12.94C41.0341 13.5667 40.8474 14.12 40.4741 14.6C40.1141 15.0667 39.6074 15.4333 38.9541 15.7C38.3141 15.9667 37.5741 16.1 36.7341 16.1ZM44.4953 16C44.2553 16 44.062 15.9333 43.9153 15.8C43.782 15.6533 43.7153 15.46 43.7153 15.22V5.84C43.7153 5.6 43.782 5.41333 43.9153 5.28C44.062 5.13333 44.2553 5.06 44.4953 5.06C44.722 5.06 44.902 5.13333 45.0353 5.28C45.182 5.41333 45.2553 5.6 45.2553 5.84V15.22C45.2553 15.46 45.182 15.6533 45.0353 15.8C44.902 15.9333 44.722 16 44.4953 16ZM44.4753 2.98C44.182 2.98 43.9286 2.87333 43.7153 2.66C43.502 2.44667 43.3953 2.18667 43.3953 1.88C43.3953 1.54667 43.502 1.28667 43.7153 1.1C43.942 0.899999 44.202 0.799999 44.4953 0.799999C44.7753 0.799999 45.022 0.899999 45.2353 1.1C45.462 1.28667 45.5753 1.54667 45.5753 1.88C45.5753 2.18667 45.4686 2.44667 45.2553 2.66C45.042 2.87333 44.782 2.98 44.4753 2.98ZM53.7566 16.1C52.7032 16.1 51.7632 15.86 50.9366 15.38C50.1232 14.8867 49.4766 14.22 48.9966 13.38C48.5299 12.54 48.2966 11.5933 48.2966 10.54C48.2966 9.47333 48.5232 8.52 48.9766 7.68C49.4299 6.84 50.0499 6.18 50.8366 5.7C51.6232 5.20667 52.5299 4.96 53.5566 4.96C54.3699 4.96 55.1166 5.12 55.7966 5.44C56.4899 5.76 57.0966 6.24 57.6166 6.88C57.7632 7.04 57.8166 7.21333 57.7766 7.4C57.7366 7.57333 57.6232 7.72667 57.4366 7.86C57.2899 7.96667 57.1232 8.00667 56.9366 7.98C56.7632 7.94 56.6099 7.84 56.4766 7.68C55.7032 6.8 54.7299 6.36 53.5566 6.36C52.8099 6.36 52.1499 6.54 51.5766 6.9C51.0166 7.26 50.5766 7.75333 50.2566 8.38C49.9499 9.00667 49.7966 9.72667 49.7966 10.54C49.7966 11.34 49.9632 12.0533 50.2966 12.68C50.6299 13.3067 51.0966 13.8 51.6966 14.16C52.2966 14.52 52.9832 14.7 53.7566 14.7C54.2766 14.7 54.7499 14.6333 55.1766 14.5C55.6166 14.3533 56.0032 14.1333 56.3366 13.84C56.4966 13.7067 56.6632 13.6333 56.8366 13.62C57.0099 13.6067 57.1699 13.66 57.3166 13.78C57.4766 13.9267 57.5632 14.0933 57.5766 14.28C57.6032 14.4667 57.5432 14.6267 57.3966 14.76C56.4232 15.6533 55.2099 16.1 53.7566 16.1ZM61.4511 16C61.2244 16 61.0377 15.9267 60.8911 15.78C60.7444 15.6333 60.6711 15.4467 60.6711 15.22V1.16C60.6711 0.933332 60.7444 0.746666 60.8911 0.599999C61.0377 0.453333 61.2244 0.38 61.4511 0.38H70.8311C71.0444 0.38 71.2244 0.453333 71.3711 0.599999C71.5311 0.733332 71.6111 0.913332 71.6111 1.14C71.6111 1.34 71.5311 1.51333 71.3711 1.66C71.2244 1.80667 71.0444 1.88 70.8311 1.88H62.2311V7.4H68.4911C68.7177 7.4 68.9044 7.47333 69.0511 7.62C69.1977 7.76667 69.2711 7.94667 69.2711 8.16C69.2711 8.37333 69.1977 8.55333 69.0511 8.7C68.9044 8.84667 68.7177 8.92 68.4911 8.92H62.2311V14.5H70.8311C71.0444 14.5 71.2244 14.5733 71.3711 14.72C71.5311 14.8667 71.6111 15.04 71.6111 15.24C71.6111 15.4667 71.5311 15.6533 71.3711 15.8C71.2244 15.9333 71.0444 16 70.8311 16H61.4511ZM78.9987 16.1C77.9454 16.1 76.9987 15.86 76.1587 15.38C75.3187 14.8867 74.6521 14.22 74.1587 13.38C73.6787 12.54 73.4387 11.5867 73.4387 10.52C73.4387 9.46667 73.6721 8.52 74.1387 7.68C74.6187 6.84 75.2654 6.18 76.0787 5.7C76.8921 5.20667 77.8121 4.96 78.8387 4.96C79.7321 4.96 80.5387 5.15333 81.2587 5.54C81.9787 5.91333 82.5587 6.41333 82.9987 7.04V1.16C82.9987 0.919999 83.0721 0.733332 83.2187 0.599999C83.3654 0.453333 83.5521 0.38 83.7787 0.38C84.0054 0.38 84.1921 0.453333 84.3387 0.599999C84.4854 0.733332 84.5587 0.919999 84.5587 1.16V10.6C84.5321 11.64 84.2721 12.58 83.7787 13.42C83.2987 14.2467 82.6387 14.9 81.7987 15.38C80.9721 15.86 80.0387 16.1 78.9987 16.1ZM78.9987 14.7C79.7721 14.7 80.4587 14.52 81.0587 14.16C81.6721 13.7867 82.1521 13.2867 82.4987 12.66C82.8587 12.0333 83.0387 11.32 83.0387 10.52C83.0387 9.73333 82.8587 9.02667 82.4987 8.4C82.1521 7.76 81.6721 7.26 81.0587 6.9C80.4587 6.54 79.7721 6.36 78.9987 6.36C78.2387 6.36 77.5521 6.54 76.9387 6.9C76.3254 7.26 75.8387 7.76 75.4787 8.4C75.1187 9.02667 74.9387 9.73333 74.9387 10.52C74.9387 11.32 75.1187 12.0333 75.4787 12.66C75.8387 13.2867 76.3254 13.7867 76.9387 14.16C77.5521 14.52 78.2387 14.7 78.9987 14.7ZM88.9594 16C88.7194 16 88.526 15.9333 88.3794 15.8C88.246 15.6533 88.1794 15.46 88.1794 15.22V5.84C88.1794 5.6 88.246 5.41333 88.3794 5.28C88.526 5.13333 88.7194 5.06 88.9594 5.06C89.186 5.06 89.366 5.13333 89.4994 5.28C89.646 5.41333 89.7194 5.6 89.7194 5.84V15.22C89.7194 15.46 89.646 15.6533 89.4994 15.8C89.366 15.9333 89.186 16 88.9594 16ZM88.9394 2.98C88.646 2.98 88.3927 2.87333 88.1794 2.66C87.966 2.44667 87.8594 2.18667 87.8594 1.88C87.8594 1.54667 87.966 1.28667 88.1794 1.1C88.406 0.899999 88.666 0.799999 88.9594 0.799999C89.2394 0.799999 89.486 0.899999 89.6994 1.1C89.926 1.28667 90.0394 1.54667 90.0394 1.88C90.0394 2.18667 89.9327 2.44667 89.7194 2.66C89.506 2.87333 89.246 2.98 88.9394 2.98ZM97.6206 16C96.9139 16 96.2806 15.8333 95.7206 15.5C95.1739 15.1667 94.7406 14.7133 94.4206 14.14C94.1006 13.5533 93.9406 12.8867 93.9406 12.14V2.36C93.9406 2.13333 94.0073 1.94667 94.1406 1.8C94.2873 1.65333 94.4739 1.58 94.7006 1.58C94.9273 1.58 95.1139 1.65333 95.2606 1.8C95.4073 1.94667 95.4806 2.13333 95.4806 2.36V12.14C95.4806 12.82 95.6806 13.38 96.0806 13.82C96.4806 14.2467 96.9939 14.46 97.6206 14.46H98.1606C98.3739 14.46 98.5473 14.5333 98.6806 14.68C98.8139 14.8267 98.8806 15.0133 98.8806 15.24C98.8806 15.4667 98.8006 15.6533 98.6406 15.8C98.4806 15.9333 98.2806 16 98.0406 16H97.6206ZM92.6406 6.8C92.4406 6.8 92.2739 6.74 92.1406 6.62C92.0073 6.48667 91.9406 6.32667 91.9406 6.14C91.9406 5.94 92.0073 5.78 92.1406 5.66C92.2739 5.52667 92.4406 5.46 92.6406 5.46H97.7406C97.9406 5.46 98.1073 5.52667 98.2406 5.66C98.3739 5.78 98.4406 5.94 98.4406 6.14C98.4406 6.32667 98.3739 6.48667 98.2406 6.62C98.1073 6.74 97.9406 6.8 97.7406 6.8H92.6406ZM106.067 16.1C105.001 16.1 104.047 15.86 103.207 15.38C102.367 14.9 101.707 14.24 101.227 13.4C100.747 12.56 100.507 11.6067 100.507 10.54C100.507 9.46 100.747 8.5 101.227 7.66C101.707 6.82 102.367 6.16 103.207 5.68C104.047 5.2 105.001 4.96 106.067 4.96C107.134 4.96 108.081 5.2 108.907 5.68C109.747 6.16 110.407 6.82 110.887 7.66C111.367 8.5 111.614 9.46 111.627 10.54C111.627 11.6067 111.381 12.56 110.887 13.4C110.407 14.24 109.747 14.9 108.907 15.38C108.081 15.86 107.134 16.1 106.067 16.1ZM106.067 14.7C106.841 14.7 107.534 14.52 108.147 14.16C108.761 13.8 109.241 13.3067 109.587 12.68C109.934 12.0533 110.107 11.34 110.107 10.54C110.107 9.74 109.934 9.02667 109.587 8.4C109.241 7.76 108.761 7.26 108.147 6.9C107.534 6.54 106.841 6.36 106.067 6.36C105.294 6.36 104.601 6.54 103.987 6.9C103.374 7.26 102.887 7.76 102.527 8.4C102.181 9.02667 102.007 9.74 102.007 10.54C102.007 11.34 102.181 12.0533 102.527 12.68C102.887 13.3067 103.374 13.8 103.987 14.16C104.601 14.52 105.294 14.7 106.067 14.7ZM114.963 9.26C115.003 8.43333 115.216 7.69333 115.603 7.04C116.003 6.38667 116.516 5.87333 117.143 5.5C117.783 5.12667 118.489 4.94 119.263 4.94C119.876 4.94 120.349 5.02667 120.683 5.2C121.016 5.37333 121.143 5.62667 121.063 5.96C121.009 6.16 120.916 6.29333 120.783 6.36C120.663 6.42667 120.509 6.45333 120.323 6.44C120.149 6.42667 119.949 6.41333 119.723 6.4C118.976 6.33333 118.309 6.41333 117.723 6.64C117.149 6.85333 116.689 7.18667 116.343 7.64C116.009 8.09333 115.843 8.63333 115.843 9.26H114.963ZM115.083 16C114.843 16 114.656 15.9333 114.523 15.8C114.389 15.6667 114.323 15.48 114.323 15.24V5.82C114.323 5.58 114.389 5.39333 114.523 5.26C114.656 5.12667 114.843 5.06 115.083 5.06C115.323 5.06 115.509 5.12667 115.643 5.26C115.776 5.39333 115.843 5.58 115.843 5.82V15.24C115.843 15.48 115.776 15.6667 115.643 15.8C115.509 15.9333 115.323 16 115.083 16Z" fill="white"/>
</svg>
